<?xml version="1.0" encoding="UTF-8"?><svg xmlns="http://www.w3.org/2000/svg" xmlns:xlink="http://www.w3.org/1999/xlink" contentScriptType="text/ecmascript" width="150pt" zoomAndPan="magnify" contentStyleType="text/css" viewBox="0 0 150 30.000001" height="30.000001pt" preserveAspectRatio="xMidYMid meet" version="1.2"><defs><g/><clipPath xml:id="clip1" id="clip1"><path d="M 2.417969 0 L 147.578125 0 L 147.578125 29.03125 L 2.417969 29.03125 Z M 2.417969 0 "/></clipPath><clipPath xml:id="clip2" id="clip2"><path d="M 23 0 L 128 0 L 128 29.03125 L 23 29.03125 Z M 23 0 "/></clipPath></defs><g xml:id="surface1" id="surface1"><g clip-rule="nonzero" clip-path="url(#clip1)"><path style=" stroke:none;fill-rule:nonzero;fill:rgb(100%,100%,100%);fill-opacity:1;" d="M 2.417969 0 L 147.582031 0 L 147.582031 36.289062 L 2.417969 36.289062 Z M 2.417969 0 "/><path style=" stroke:none;fill-rule:nonzero;fill:rgb(100%,100%,100%);fill-opacity:1;" d="M 2.417969 0 L 147.582031 0 L 147.582031 29.03125 L 2.417969 29.03125 Z M 2.417969 0 "/><path style=" stroke:none;fill-rule:nonzero;fill:rgb(100%,100%,100%);fill-opacity:1;" d="M 2.417969 0 L 147.582031 0 L 147.582031 29.03125 L 2.417969 29.03125 Z M 2.417969 0 "/></g><g clip-rule="nonzero" clip-path="url(#clip2)"><path style="fill:none;stroke-width:1;stroke-linecap:round;stroke-linejoin:miter;stroke:rgb(32.939148%,32.939148%,32.939148%);stroke-opacity:1;stroke-miterlimit:4;" d="M 0.502895 -0.0015768 L 136.061596 -0.00173711 " transform="matrix(0.706711,-0.175315,0.174755,0.704454,26.89878,26.448651)"/></g><g style="fill:rgb(23.919678%,23.919678%,23.919678%);fill-opacity:1;"><g transform="translate(31.155508, 12.229841)"><path style="stroke:none;" d="M 7.09375 -2.207031 C 6.203125 -0.917969 5.726562 -0.1875 4.496094 -0.1875 L 2.125 -0.1875 L 2.125 -3.972656 L 3.9375 -3.972656 C 5.109375 -3.972656 5.398438 -3.65625 5.679688 -2.855469 L 5.679688 -5.273438 C 5.398438 -4.472656 5.109375 -4.15625 3.9375 -4.15625 L 2.125 -4.15625 L 2.125 -7.941406 L 4.214844 -7.941406 C 5.445312 -7.941406 5.933594 -7.363281 6.675781 -6.316406 L 6.722656 -6.339844 L 6.351562 -8.128906 L 0.175781 -8.128906 L 0.175781 -8.070312 C 0.648438 -8.011719 1.058594 -7.886719 1.058594 -7.46875 L 1.058594 -0.894531 C 1.058594 -0.476562 0.648438 -0.230469 0.175781 -0.0585938 L 0.175781 0 L 6.121094 0 L 6.515625 0.253906 L 6.585938 0 L 7.140625 -2.183594 Z M 7.09375 -2.207031 "/></g></g><g style="fill:rgb(23.919678%,23.919678%,23.919678%);fill-opacity:1;"><g transform="translate(41.723261, 12.229841)"><path style="stroke:none;" d="M 6.316406 -1.53125 L 4.867188 -3.496094 C 6.304688 -3.832031 7.175781 -4.796875 7.175781 -6.015625 C 7.175781 -7.421875 5.980469 -8.128906 4.167969 -8.128906 L 0.175781 -8.128906 L 0.175781 -8.070312 C 0.648438 -8.011719 1.058594 -7.886719 1.058594 -7.46875 L 1.058594 -0.660156 C 1.058594 -0.242188 0.648438 -0.117188 0.175781 -0.0585938 L 0.175781 0 L 3.007812 0 L 3.007812 -0.0585938 C 2.53125 -0.117188 2.125 -0.242188 2.125 -0.660156 L 2.125 -3.355469 L 3.773438 -3.355469 L 6.0625 -0.199219 L 6.0625 0 L 8.046875 0 L 8.046875 -0.0351562 C 7.445312 -0.335938 7.003906 -0.59375 6.316406 -1.53125 Z M 2.125 -3.820312 L 2.125 -7.921875 L 3.542969 -7.921875 C 5.785156 -7.921875 6.132812 -6.734375 6.132812 -5.597656 C 6.132812 -3.984375 5.457031 -3.566406 3.949219 -3.566406 C 3.308594 -3.566406 2.742188 -3.644531 2.125 -3.820312 Z M 2.125 -3.820312 "/></g></g><g style="fill:rgb(23.919678%,23.919678%,23.919678%);fill-opacity:1;"><g transform="translate(52.906504, 12.229841)"><path style="stroke:none;" d="M 0.175781 0 L 3.007812 0 L 3.007812 -0.0585938 C 2.53125 -0.117188 2.125 -0.242188 2.125 -0.660156 L 2.125 -7.46875 C 2.125 -7.886719 2.53125 -8.011719 3.007812 -8.070312 L 3.007812 -8.128906 L 0.175781 -8.128906 L 0.175781 -8.070312 C 0.648438 -8.011719 1.058594 -7.886719 1.058594 -7.46875 L 1.058594 -0.660156 C 1.058594 -0.242188 0.648438 -0.117188 0.175781 -0.0585938 Z M 0.175781 0 "/></g></g><g style="fill:rgb(23.919678%,23.919678%,23.919678%);fill-opacity:1;"><g transform="translate(59.340054, 12.229841)"><path style="stroke:none;" d="M 7.941406 -1.289062 L 7.863281 -1.347656 C 7.363281 -0.730469 6.328125 -0.359375 5.445312 -0.359375 C 3.425781 -0.359375 1.707031 -2.289062 1.707031 -4.714844 C 1.707031 -6.886719 3.03125 -8.046875 4.632812 -8.046875 C 6.410156 -8.046875 7.304688 -6.621094 6.664062 -5.109375 L 6.699219 -5.097656 L 8.117188 -7.070312 C 7.582031 -7.722656 6.644531 -8.292969 5.179688 -8.292969 C 2.785156 -8.292969 0.523438 -6.722656 0.523438 -4.074219 C 0.523438 -1.554688 2.542969 0.164062 4.945312 0.164062 C 6.421875 0.164062 7.445312 -0.5 7.941406 -1.289062 Z M 7.941406 -1.289062 "/></g></g><g style="fill:rgb(23.919678%,23.919678%,23.919678%);fill-opacity:1;"><g transform="translate(77.646469, 25.69355)"><path style="stroke:none;" d="M 10.324219 -8.128906 L 10.324219 -8.082031 C 10.972656 -7.941406 11.402344 -7.746094 11.007812 -6.734375 L 8.628906 -0.617188 L 6.316406 -6.734375 C 5.921875 -7.769531 6.386719 -8.011719 7.199219 -8.082031 L 7.199219 -8.128906 L 4.390625 -8.128906 C 4.5625 -7.976562 4.785156 -7.640625 4.902344 -7.339844 L 5.957031 -4.585938 L 4.472656 -0.617188 L 2.160156 -6.734375 C 1.765625 -7.769531 2.230469 -8.011719 3.042969 -8.082031 L 3.042969 -8.128906 L 0.230469 -8.128906 C 0.40625 -7.976562 0.628906 -7.640625 0.742188 -7.339844 L 3.613281 0.09375 L 3.578125 0.335938 L 4.632812 -0.394531 L 6.085938 -4.261719 L 7.769531 0.09375 L 7.734375 0.335938 L 8.789062 -0.394531 L 11.265625 -6.722656 C 11.660156 -7.734375 11.972656 -7.941406 12.460938 -8.082031 L 12.460938 -8.128906 Z M 10.324219 -8.128906 "/></g></g><g style="fill:rgb(23.919678%,23.919678%,23.919678%);fill-opacity:1;"><g transform="translate(93.591012, 25.69355)"><path style="stroke:none;" d="M 4.878906 -8.292969 C 2.472656 -8.292969 0.523438 -6.675781 0.523438 -4.066406 C 0.523438 -1.453125 2.472656 0.164062 4.878906 0.164062 C 7.257812 0.164062 9.210938 -1.453125 9.210938 -4.066406 C 9.210938 -6.675781 7.257812 -8.292969 4.878906 -8.292969 Z M 5.332031 -0.046875 C 3.195312 -0.046875 1.660156 -2.390625 1.660156 -4.738281 C 1.660156 -6.710938 2.742188 -8.082031 4.402344 -8.082031 C 6.539062 -8.082031 8.082031 -5.75 8.082031 -3.402344 C 8.082031 -1.417969 6.992188 -0.046875 5.332031 -0.046875 Z M 5.332031 -0.046875 "/></g></g><g style="fill:rgb(23.919678%,23.919678%,23.919678%);fill-opacity:1;"><g transform="translate(106.574252, 25.69355)"><path style="stroke:none;" d="M 6.351562 -8.128906 L 6.351562 -8.070312 C 6.828125 -8.011719 7.234375 -7.652344 7.234375 -6.074219 L 7.234375 -1.71875 L 2.414062 -7.46875 C 2.148438 -7.757812 2.042969 -7.988281 1.960938 -8.128906 L 0.117188 -8.128906 C 0.488281 -7.941406 0.777344 -7.675781 1.171875 -7.210938 L 1.171875 -1.824219 C 1.171875 -0.242188 0.765625 -0.117188 0.289062 -0.0585938 L 0.289062 0 L 2.289062 0 L 2.289062 -0.0585938 C 1.8125 -0.117188 1.40625 -0.476562 1.40625 -2.054688 L 1.40625 -6.933594 L 7.511719 0.324219 L 7.535156 0.300781 C 7.511719 -0.117188 7.480469 -0.71875 7.480469 -1.929688 L 7.480469 -6.304688 C 7.480469 -7.886719 7.886719 -8.011719 8.359375 -8.070312 L 8.359375 -8.128906 Z M 6.351562 -8.128906 "/></g></g><g style="fill:rgb(23.919678%,23.919678%,23.919678%);fill-opacity:1;"><g transform="translate(118.361366, 25.69355)"><path style="stroke:none;" d="M 9.046875 -3.507812 L 9.046875 -3.566406 L 4.902344 -3.566406 L 4.667969 -3.425781 C 6.664062 -3.367188 7.09375 -3.308594 7.09375 -2.890625 L 7.09375 -0.917969 C 6.792969 -0.511719 6.316406 -0.324219 5.609375 -0.324219 C 3.378906 -0.324219 1.707031 -2.289062 1.707031 -4.714844 C 1.707031 -6.886719 3.054688 -8.058594 4.65625 -8.058594 C 6.457031 -8.058594 7.445312 -6.621094 6.804688 -5.085938 L 6.839844 -5.074219 L 8.257812 -7.070312 C 7.722656 -7.722656 6.664062 -8.292969 5.179688 -8.292969 C 2.785156 -8.292969 0.523438 -6.722656 0.523438 -4.074219 C 0.523438 -1.554688 2.589844 0.164062 4.820312 0.164062 C 5.792969 0.164062 6.597656 -0.164062 7.09375 -0.707031 L 7.09375 -0.695312 L 6.992188 0 L 9.046875 0 L 9.046875 -0.0585938 C 8.570312 -0.117188 8.164062 -0.242188 8.164062 -0.660156 L 8.164062 -2.890625 C 8.164062 -3.308594 8.570312 -3.449219 9.046875 -3.507812 Z M 9.046875 -3.507812 "/></g></g></g></svg>